<svg xmlns="http://www.w3.org/2000/svg" viewBox="0 0 64 64">
  <defs>
    <linearGradient id="card" x1="0" y1="0" x2="1" y2="1">
      <stop offset="0" stop-color="#ffffff" />
      <stop offset="1" stop-color="#f1f3f5" />
    </linearGradient>
  </defs>
  <rect x="6" y="6" width="52" height="52" rx="8" fill="url(#card)" stroke="#111827" stroke-width="2" />
  <text x="14" y="22" font-size="12" font-family="Georgia, 'Times New Roman', serif" fill="#111827" font-weight="700">A</text>
  <text x="50" y="52" font-size="12" text-anchor="end" font-family="Georgia, 'Times New Roman', serif" fill="#111827" font-weight="700">A</text>
  <path d="M32 16 C24 23 20 28 20 34 C20 39 24 43 29 43 C31 43 33 42 34.5 40.5 C34 44 32.5 47 30 50 H34 C36.5 47 38 44 37.5 40.5 C39 42 41 43 43 43 C48 43 52 39 52 34 C52 28 40 23 32 16 Z" fill="#111827" />
  <rect x="30" y="43" width="4" height="7" fill="#111827" />
</svg>
